<svg version="1.1" id="OBJECTS" xmlns="http://www.w3.org/2000/svg" xmlns:xlink="http://www.w3.org/1999/xlink" x="0px" y="0px"
	 viewBox="0 0 1924.2 972.4" preserveAspectRatio="none">
<path style="fill:#FFFFFF;" class="st0" d="M1412.7,846.8c-60.6,60.6-149,84.3-231.8,62.1l-976-261.5C122,625.2,57.3,560.5,35.1,477.7L0,346.5v625.9h1920
	V339.5L1412.7,846.8z"/>
<path style="fill:#F4F6FD;" class="st1" d="M1924.1,0h-1.5l0.4,336.6l-510.2,510.2c-60.6,60.6-149,84.3-231.8,62.1l-976-261.5
	c-65.4-17.5-119.5-61.5-150.3-120c26.7,72.6,87.1,128.3,162.7,148.5l973.5,260.8c82.6,22.1,170.7-1.5,231.2-62l501.2-501.2l1-342.9
	L1924.1,0z"/>
</svg>
